<svg xmlns="http://www.w3.org/2000/svg" width="108.612" height="103.353" viewBox="0.076 -8 108.612 103.353">
  <g id="fajne_skaldy_logo_sign" data-name="fajne skaldy logo sign" transform="translate(-360.4 -291.955)">
    <g id="XMLID_408_" transform="translate(360.4 291.955)">
      <g id="Group_4" data-name="Group 4" transform="translate(0 0)">
        <path id="XMLID_410_" d="M420.321,294.846v11.507h19.615c-12.553,21.707-24.845,42.891-37.4,64.6-12.553-21.707-24.845-42.891-37.137-64.336h31.122V317.86H385.276c5.754,10.2,11.507,19.876,17.261,30.076,5.754-9.938,11.246-19.615,17.261-29.814H408.552V283.6h44.46c-2.092,3.661-3.923,7.061-6.015,10.461a4.417,4.417,0,0,1-2.615.785H420.321Z" transform="translate(-352.324 -283.6)" fill="#fff"/>
        <path id="XMLID_409_" d="M360.4,283.6h44.722v11.246H369.553c-1.569,0-2.615-.262-3.4-1.831C364.061,289.877,362.231,287,360.4,283.6Z" transform="translate(-352.324 -283.6)" fill="#fff"/>
      </g>
    </g>
  </g>
</svg>
