<?xml version="1.0" encoding="UTF-8"?>
<svg id="Vrstva_1" xmlns="http://www.w3.org/2000/svg" version="1.1" viewBox="0 0 100.7 87.4">
  <!-- Generator: Adobe Illustrator 30.6.0, SVG Export Plug-In . SVG Version: 2.1.4 Build 109)  -->
  <defs>
    <style>
      .st0 {
        fill: #fff;
      }
    </style>
  </defs>
  <g id="fajne_skaldy_logo_black">
    <g id="Group_4">
      <path class="st0" d="M68,11.2v11.5h19.6c-12.6,21.7-24.8,42.9-37.4,64.6-12.6-21.7-24.8-42.9-37.1-64.3h31.1v11.2h-11.2c5.8,10.2,11.5,19.9,17.3,30.1,5.8-9.9,11.2-19.6,17.3-29.8h-11.2V0h44.5c-2.1,3.7-3.9,7.1-6,10.5-.8.5-1.7.8-2.6.8h-24.1Z"/>
      <path class="st0" d="M0,0h44.7v11.2H9.2c-1.6,0-2.6-.3-3.4-1.8C3.7,6.3,1.8,3.4,0,0Z"/>
    </g>
  </g>
</svg>